<svg width="14" height="15" viewBox="0 0 14 15" fill="none" xmlns="http://www.w3.org/2000/svg">
<path d="M6.75 4.28125C6.75 3.1875 5.75 2.78125 5.28125 1.21875C5.1875 0.9375 4.78125 0.9375 4.6875 1.21875C4.21875 2.78125 3.25 3.1875 3.25 4.28125C3.25 5.25 4.03125 6 5 6C5.96875 6 6.75 5.25 6.75 4.28125ZM1.4375 7.21875C0.96875 8.78125 0 9.1875 0 10.2812C0 11.25 0.78125 12 1.75 12C2.71875 12 3.5 11.25 3.5 10.2812C3.5 9.1875 2.5 8.78125 2.03125 7.21875C1.9375 6.9375 1.53125 6.9375 1.4375 7.21875ZM10.6562 4.5C10.4688 3.875 9.53125 3.84375 9.3125 4.5C8.25 7.875 6 8.8125 6 11.1875C6 13.3125 7.78125 15 10 15C12.1875 15 14 13.3125 14 11.1875C14 8.78125 11.7188 7.90625 10.6562 4.5Z" fill="#979797"/>
</svg>
