<?xml version="1.0" encoding="utf-8"?>
<!-- Generator: Adobe Illustrator 27.0.1, SVG Export Plug-In . SVG Version: 6.00 Build 0)  -->
<svg fill="#9ca3af" xmlns="http://www.w3.org/2000/svg" xmlns:xlink="http://www.w3.org/1999/xlink" x="0px" y="0px"
	 viewBox="0 0 90 90" style="enable-background:new 0 0 90 90;" xml:space="preserve">
<g>
	<path d="M54,49.5V26.4c0-4.9-4-8.9-9-8.9s-9,4-9,8.9v23.1c-2.7,2.5-4.3,6-4.3,9.8c0,7.3,6,13.3,13.3,13.3s13.3-5.9,13.3-13.3
		C58.3,55.5,56.7,52,54,49.5z M45,69.4c-5.7,0-10.3-4.6-10.3-10.3c0-3.1,1.4-6,3.7-7.9c0.3-0.3,0.5-0.7,0.5-1.2V26.4
		c0-3.2,2.7-5.9,6-5.9s6,2.6,6,5.9v23.8c0,0.4,0.2,0.9,0.5,1.2c2.4,2,3.7,4.8,3.7,7.9C55.3,64.9,50.7,69.4,45,69.4z"/>
	<path d="M46.5,53.5V30.7c0-0.8-0.7-1.5-1.5-1.5s-1.5,0.7-1.5,1.5v22.9c-2.8,0.7-4.8,3.2-4.8,6.1c0,3.5,2.8,6.3,6.3,6.3
		s6.3-2.8,6.3-6.3C51.3,56.8,49.2,54.2,46.5,53.5L46.5,53.5z M45,63c-1.8,0-3.3-1.5-3.3-3.3s1.5-3.3,3.3-3.3s3.3,1.5,3.3,3.3
		S46.8,63,45,63z"/>
</g>
</svg>
